<?xml version="1.0" standalone="no"?>
<!DOCTYPE svg PUBLIC "-//W3C//DTD SVG 20010904//EN"
 "http://www.w3.org/TR/2001/REC-SVG-20010904/DTD/svg10.dtd">
<svg version="1.0" xmlns="http://www.w3.org/2000/svg"
 width="225.000000pt" height="225.000000pt" viewBox="0 0 225.000000 225.000000"
 preserveAspectRatio="xMidYMid meet">

<g transform="translate(0.000000,225.000000) scale(0.100000,-0.100000)"
fill="#000000" stroke="none">
<path d="M704 2141 c-90 -15 -207 -112 -251 -208 -24 -52 -25 -63 -21 -170 3
-70 2 -116 -5 -120 -14 -8 -3 -125 16 -162 9 -17 23 -57 32 -89 53 -182 212
-324 347 -309 130 16 272 157 319 317 7 25 18 54 25 65 20 33 37 133 27 163
-5 15 -6 41 -2 57 12 54 9 160 -6 211 -16 55 -68 122 -118 153 -56 34 -273
104 -312 100 -5 -1 -28 -5 -51 -8z"/>
<path d="M535 1149 c-25 -27 -108 -69 -225 -113 -130 -49 -162 -73 -199 -148
-35 -71 -75 -217 -90 -334 -14 -99 -17 -242 -7 -272 18 -55 313 -134 629 -168
129 -14 171 -15 277 -5 135 13 338 45 348 55 11 11 -72 87 -138 126 -83 50
-182 90 -290 119 -47 13 -87 25 -89 26 -3 4 304 634 314 643 5 6 187 -110 245
-157 25 -19 76 -62 114 -95 65 -57 69 -59 82 -41 8 10 14 25 14 32 0 29 -61
133 -92 156 -31 24 -159 80 -241 107 -21 6 -60 27 -87 45 l-49 33 -6 -46 c-10
-76 -25 -112 -62 -153 -46 -51 -106 -73 -182 -67 -113 8 -194 84 -230 218
l-17 61 -19 -22z"/>
<path d="M2123 1125 c-163 -84 -362 -253 -548 -464 l-87 -100 -47 57 c-54 65
-157 157 -251 226 l-64 47 -83 -163 c-45 -90 -82 -168 -82 -174 -1 -6 17 -16
38 -23 63 -18 213 -97 279 -145 36 -27 90 -83 137 -145 43 -56 81 -98 85 -94
3 4 33 64 65 133 190 400 429 734 613 855 39 25 49 35 38 35 -3 0 -44 -20 -93
-45z"/>
</g>
</svg>
