<?xml version="1.0" standalone="no"?>
<!DOCTYPE svg PUBLIC "-//W3C//DTD SVG 20010904//EN"
 "http://www.w3.org/TR/2001/REC-SVG-20010904/DTD/svg10.dtd">
<svg version="1.0" xmlns="http://www.w3.org/2000/svg"
 width="225.000000pt" height="225.000000pt" viewBox="0 0 225.000000 225.000000"
 preserveAspectRatio="xMidYMid meet">

<g transform="translate(0.000000,225.000000) scale(0.100000,-0.100000)"
fill="#000000" stroke="none">
<path d="M706 1969 c-3 -17 -6 -44 -6 -60 0 -25 4 -29 38 -34 184 -28 283 -61
346 -116 l42 -38 30 31 c50 54 174 96 358 124 l39 5 -7 57 c-4 31 -8 57 -10
59 -6 7 -164 -28 -225 -49 -72 -26 -151 -89 -171 -139 l-13 -31 -18 35 c-49
94 -161 151 -355 181 -40 6 -42 5 -48 -25z"/>
<path d="M606 1844 c-3 -8 -6 -31 -6 -50 l0 -34 212 0 c116 0 209 2 207 4 -2
2 -28 14 -57 25 -44 18 -139 37 -318 66 -23 4 -33 1 -38 -11z"/>
<path d="M1505 1839 c-104 -18 -275 -64 -275 -74 0 -3 95 -5 210 -5 l210 0 0
28 c0 40 -11 72 -24 71 -6 0 -60 -9 -121 -20z"/>
<path d="M536 1714 c-12 -12 -13 -20 -6 -35 10 -18 24 -19 266 -19 241 0 257
-1 281 -20 14 -11 36 -20 48 -20 12 0 34 9 48 20 24 19 40 20 270 20 135 0
252 3 261 6 21 8 21 50 0 58 -9 3 -128 6 -265 6 l-249 0 -32 -30 c-17 -16 -32
-30 -34 -30 -2 0 -17 14 -34 30 l-31 30 -254 0 c-217 0 -256 -2 -269 -16z"/>
<path d="M439 1581 l-29 -29 0 -556 0 -556 70 0 70 0 0 70 0 70 50 0 50 0 0
-70 c0 -63 2 -70 20 -70 18 0 20 7 20 70 l0 70 50 0 50 0 0 -70 0 -70 51 0
c45 0 50 2 39 15 -10 12 -10 19 -2 27 17 17 45 1 39 -22 -5 -18 0 -20 42 -20
43 0 48 2 47 22 -1 14 5 23 14 23 9 0 15 -9 14 -23 -1 -20 4 -22 52 -22 l53 0
3 138 c3 134 4 137 26 140 12 2 22 10 22 17 0 10 8 13 28 10 15 -3 71 -12 125
-20 54 -7 110 -21 124 -30 23 -15 26 -15 43 0 25 23 240 57 240 38 0 -7 9 -13
19 -13 27 0 31 -18 31 -157 0 -113 2 -124 18 -121 16 3 17 38 17 562 l0 558
-28 24 -28 24 -287 0 c-237 -1 -290 -3 -306 -15 -25 -19 -97 -19 -122 0 -16
12 -70 14 -307 15 l-289 0 -29 -29z m211 -76 c0 -11 -12 -15 -50 -15 -38 0
-50 4 -50 15 0 11 12 15 50 15 38 0 50 -4 50 -15z m140 0 c0 -11 -12 -15 -50
-15 -38 0 -50 4 -50 15 0 11 12 15 50 15 38 0 50 -4 50 -15z m143 -7 c3 -13 6
-76 7 -140 1 -106 -1 -119 -20 -138 -24 -24 -34 -25 -54 -4 -13 12 -16 41 -16
153 0 76 3 141 7 144 3 4 21 7 39 7 25 0 33 -5 37 -22z m137 7 c0 -11 -12 -15
-45 -15 -33 0 -45 4 -45 15 0 11 12 15 45 15 33 0 45 -4 45 -15z m255 -5 c0
-12 -17 -16 -77 -18 -73 -3 -78 -2 -78 18 0 20 5 21 78 18 60 -2 77 -6 77 -18z
m143 -12 c3 -27 2 -28 -42 -28 -42 0 -46 2 -46 23 0 32 9 38 50 35 30 -3 35
-7 38 -30z m72 -128 c0 -153 -1 -160 -20 -160 -19 0 -20 7 -20 160 0 153 1
160 20 160 19 0 20 -7 20 -160z m165 140 c0 -12 -13 -15 -60 -15 -50 0 -60 3
-63 18 -3 16 3 18 60 15 48 -2 63 -7 63 -18z m-1055 -70 c0 -17 -7 -20 -50
-20 -43 0 -50 3 -50 20 0 17 7 20 50 20 43 0 50 -3 50 -20z m140 0 c0 -17 -7
-20 -50 -20 -43 0 -50 3 -50 20 0 17 7 20 50 20 43 0 50 -3 50 -20z m280 0 c0
-17 -7 -20 -45 -20 -38 0 -45 3 -45 20 0 17 7 20 45 20 38 0 45 -3 45 -20z
m398 -62 l3 -68 -46 0 -45 0 0 63 c0 35 3 67 7 71 4 4 23 6 43 4 l35 -3 3 -67z
m240 45 c3 -22 0 -23 -62 -23 -57 0 -66 2 -66 18 0 29 10 33 70 30 48 -3 55
-6 58 -25z m-418 -1 c0 -11 -9 -27 -19 -36 -26 -23 -61 -6 -61 29 0 22 4 25
40 25 32 0 40 -4 40 -18z m-640 -122 l0 -90 -50 0 -50 0 0 90 0 90 50 0 50 0
0 -90z m140 0 l0 -90 -50 0 -50 0 0 90 0 90 50 0 50 0 0 -90z m280 17 c0 -61
-3 -77 -20 -92 -18 -17 -21 -17 -45 -1 -23 15 -25 22 -25 91 l0 75 45 0 45 0
0 -73z m250 3 c28 -17 -4 -30 -76 -30 -68 0 -74 2 -74 20 0 19 6 20 69 19 38
-1 74 -5 81 -9z m145 -70 c0 -34 -1 -35 -40 -35 -34 0 -40 3 -43 23 -6 42 5
53 45 50 36 -3 38 -5 38 -38z m243 23 c3 -10 -14 -13 -62 -13 -53 0 -66 3 -66
15 0 13 11 15 62 13 38 -2 63 -8 66 -15z m-378 -18 c0 -12 -16 -15 -80 -15
-64 0 -80 3 -80 15 0 12 16 15 80 15 64 0 80 -3 80 -15z m378 -32 c3 -10 -14
-13 -62 -13 -61 0 -77 6 -59 24 12 12 116 2 121 -11z m-1124 -129 c3 -26 6
-78 6 -115 0 -67 -1 -69 -25 -69 l-25 0 0 115 c0 106 2 115 19 115 14 0 20
-10 25 -46z m348 16 c6 -38 3 -40 -44 -40 -35 0 -38 2 -38 28 0 36 6 42 46 42
28 0 32 -4 36 -30z m76 -133 l3 -157 -26 0 -25 0 0 153 c0 85 3 157 7 161 4 4
14 5 23 4 13 -3 15 -28 18 -161z m90 125 c3 -32 2 -33 -30 -30 -22 2 -34 9
-36 21 -6 33 6 49 35 45 24 -2 29 -8 31 -36z m110 1 c3 -31 1 -33 -27 -33 -29
0 -31 3 -31 36 0 33 2 35 28 32 22 -2 28 -8 30 -35z m71 0 c6 -21 19 -68 30
-105 19 -67 19 -67 -1 -74 -11 -3 -23 -2 -27 3 -5 4 -19 52 -33 105 -26 97
-25 105 9 107 7 1 17 -16 22 -36z m189 -1 l3 -33 -43 3 c-32 2 -44 8 -46 21
-7 36 6 48 45 45 35 -3 38 -6 41 -36z m127 3 c0 -28 -2 -30 -40 -30 -30 0 -41
4 -43 18 -7 36 6 48 45 45 35 -3 38 -6 38 -33z m105 -1 c0 -34 -1 -35 -32 -32
-54 5 -53 68 2 68 28 0 30 -3 30 -36z m-910 11 c0 -12 -16 -15 -85 -15 -69 0
-85 3 -85 15 0 12 16 15 85 15 69 0 85 -3 85 -15z m-44 -79 c8 -21 -14 -56
-34 -56 -25 0 -42 20 -42 47 0 20 5 23 35 23 22 0 38 -6 41 -14z m188 -8 c3
-13 4 -45 3 -73 l-2 -50 -42 -3 -43 -3 0 75 0 76 40 0 c33 0 40 -4 44 -22z
m166 -54 l0 -75 -32 3 -33 3 -3 73 -3 72 36 0 35 0 0 -76z m110 1 l0 -75 -30
0 -30 0 0 75 0 75 30 0 30 0 0 -75z m260 0 l0 -75 -45 0 -45 0 0 75 0 75 45 0
45 0 0 -75z m130 0 l0 -75 -45 0 -45 0 0 75 0 75 45 0 45 0 0 -75z m100 0 l0
-75 -35 0 -35 0 0 75 0 75 35 0 35 0 0 -75z m-910 -60 c0 -12 -16 -15 -85 -15
-69 0 -85 3 -85 15 0 12 16 15 85 15 69 0 85 -3 85 -15z m554 -37 c11 -42 7
-58 -14 -58 -22 0 -45 43 -36 67 9 22 43 15 50 -9z m-751 -20 c7 -27 1 -38
-23 -38 -18 0 -30 18 -30 46 0 24 47 17 53 -8z m342 12 c3 -6 3 -19 0 -30 -5
-16 -15 -20 -46 -20 -37 0 -39 2 -39 30 0 28 2 30 39 30 22 0 43 -5 46 -10z
m165 -21 c0 -28 -2 -30 -32 -27 -28 2 -34 8 -36 31 -3 25 -1 27 32 27 33 0 36
-2 36 -31z m110 1 c0 -27 -3 -30 -30 -30 -27 0 -30 3 -30 30 0 27 3 30 30 30
27 0 30 -3 30 -30z m260 -1 c0 -29 -1 -30 -42 -27 -39 3 -43 6 -46 31 -3 26
-2 27 42 27 45 0 46 -1 46 -31z m130 0 c0 -29 -1 -30 -42 -27 -39 3 -43 6 -46
31 -3 26 -2 27 42 27 45 0 46 -1 46 -31z m100 0 c0 -28 -2 -30 -32 -27 -28 2
-34 8 -36 31 -3 25 -1 27 32 27 33 0 36 -2 36 -31z m-910 6 c0 -12 -16 -15
-85 -15 -69 0 -85 3 -85 15 0 12 16 15 85 15 69 0 85 -3 85 -15z m-142 -137
c3 -15 -4 -18 -47 -18 -45 0 -51 3 -51 21 0 18 5 20 47 17 36 -2 49 -7 51 -20z
m140 0 c3 -15 -4 -18 -47 -18 -45 0 -51 3 -51 21 0 18 5 20 47 17 36 -2 49 -7
51 -20z m152 7 c0 -11 -12 -15 -45 -15 -33 0 -45 4 -45 15 0 11 12 15 45 15
33 0 45 -4 45 -15z m120 0 c0 -11 -11 -15 -40 -15 -29 0 -40 4 -40 15 0 11 11
15 40 15 29 0 40 -4 40 -15z m-122 -97 l3 -48 -45 0 -46 0 0 43 c0 53 5 59 50
55 34 -3 35 -4 38 -50z m122 2 l0 -50 -40 0 -40 0 0 50 0 50 40 0 40 0 0 -50z
m-410 15 c0 -11 -12 -15 -50 -15 -38 0 -50 4 -50 15 0 11 12 15 50 15 38 0 50
-4 50 -15z m140 0 c0 -11 -12 -15 -50 -15 -38 0 -50 4 -50 15 0 11 12 15 50
15 38 0 50 -4 50 -15z"/>
<path d="M874 1259 c-10 -17 13 -36 27 -22 12 12 4 33 -11 33 -5 0 -12 -5 -16
-11z"/>
<path d="M1010 1249 c0 -24 23 -21 28 4 2 10 -3 17 -12 17 -10 0 -16 -9 -16
-21z"/>
<path d="M1415 1250 c-4 -6 -3 -16 3 -22 6 -6 12 -6 17 2 4 6 3 16 -3 22 -6 6
-12 6 -17 -2z"/>
<path d="M1190 560 l0 -120 126 0 c114 0 125 -2 122 -17 -3 -17 -40 -18 -553
-23 -303 -3 -551 -6 -551 -8 -29 -51 -26 -90 9 -122 20 -20 39 -20 778 -20
l758 0 27 23 c33 28 37 76 9 107 -15 17 -31 20 -92 20 l-73 0 0 141 0 142
-101 -6 c-118 -6 -139 -18 -139 -79 0 -31 -3 -38 -20 -38 -16 0 -20 7 -20 33
0 67 -42 85 -202 86 l-78 1 0 -120z m215 60 c0 -12 -18 -16 -87 -18 -83 -3
-88 -2 -88 18 0 20 5 21 88 18 69 -2 87 -6 87 -18z m3 -92 l3 -48 -90 0 -91 0
0 43 c0 24 3 47 7 51 4 4 43 5 88 4 l80 -3 3 -47z m296 -30 c8 -14 7 -21 -6
-34 -30 -30 -75 9 -48 42 16 18 39 15 54 -8z"/>
</g>
</svg>
