<?xml version="1.0" standalone="no"?>
<!DOCTYPE svg PUBLIC "-//W3C//DTD SVG 20010904//EN"
 "http://www.w3.org/TR/2001/REC-SVG-20010904/DTD/svg10.dtd">
<svg version="1.0" xmlns="http://www.w3.org/2000/svg"
 width="1280.000000pt" height="1280.000000pt" viewBox="0 0 1280.000000 1280.000000"
 preserveAspectRatio="xMidYMid meet">

<g transform="translate(0.000000,1280.000000) scale(0.100000,-0.100000)"
fill="#000000" stroke="none">
<path d="M3660 9040 c-141 -22 -156 -25 -250 -57 -156 -53 -287 -141 -373
-251 -87 -113 -136 -231 -158 -388 -17 -121 -2 -358 31 -469 5 -16 16 -61 26
-100 9 -38 21 -74 25 -79 5 -6 9 -16 9 -23 0 -40 174 -426 238 -527 14 -23 35
-57 47 -76 12 -19 53 -82 91 -139 38 -57 76 -113 84 -126 18 -26 93 -125 133
-175 15 -19 31 -39 35 -45 9 -13 95 -119 102 -125 3 -3 25 -28 50 -55 211
-235 476 -498 690 -684 47 -40 103 -90 126 -110 92 -81 419 -331 433 -331 5 0
14 -7 21 -15 24 -28 301 -216 535 -363 22 -14 52 -33 67 -44 15 -10 30 -18 32
-18 3 0 30 -15 59 -34 29 -19 78 -48 108 -64 30 -17 104 -58 164 -92 61 -34
124 -68 140 -76 17 -7 37 -18 45 -23 14 -9 197 -96 305 -146 167 -76 365 -153
560 -217 149 -49 197 -62 350 -98 44 -11 98 -23 120 -29 22 -5 87 -17 145 -26
58 -9 137 -21 175 -28 93 -16 581 -16 655 0 30 6 84 17 120 23 172 31 354 118
467 224 61 57 143 161 143 181 0 2 11 28 24 57 30 66 42 116 61 245 26 180 15
238 -19 97 -30 -130 -109 -260 -216 -356 -72 -66 -216 -140 -315 -163 -38 -9
-90 -21 -115 -26 -69 -17 -272 -22 -395 -11 -265 24 -494 72 -830 174 -55 17
-113 36 -130 43 -16 7 -59 23 -95 35 -36 13 -96 36 -135 52 -38 17 -90 38
-115 47 -128 51 -465 218 -672 334 -27 15 -67 38 -91 51 -23 12 -73 42 -111
65 -37 22 -72 41 -76 41 -4 0 -14 7 -21 17 -8 9 -27 22 -44 30 -16 7 -41 22
-55 32 -14 10 -68 47 -120 82 -164 109 -203 135 -280 192 -41 31 -79 60 -85
64 -5 5 -37 29 -70 53 -58 44 -335 267 -345 279 -3 4 -21 19 -40 35 -103 84
-393 363 -491 472 -35 38 -82 90 -105 115 -61 66 -254 308 -254 318 0 5 -7 14
-15 21 -14 11 -98 131 -145 206 -114 180 -220 381 -275 519 -15 39 -31 79 -36
90 -19 43 -68 224 -78 285 -6 36 -13 106 -17 155 -14 197 52 402 165 512 51
50 174 133 197 133 5 0 36 11 69 24 33 13 101 32 150 42 110 21 414 30 500 15
33 -6 107 -17 165 -26 58 -8 132 -22 165 -31 33 -9 80 -20 105 -23 80 -13 470
-132 555 -171 11 -5 63 -25 115 -45 148 -57 331 -140 502 -229 219 -113 231
-120 265 -144 41 -29 77 -31 40 -2 -14 11 -27 20 -30 20 -2 0 -37 22 -78 48
-41 27 -87 56 -104 64 -34 17 -70 37 -238 132 -64 36 -119 66 -121 66 -2 0
-68 31 -147 69 -124 59 -215 100 -344 156 -16 7 -75 29 -130 50 -55 21 -113
43 -130 50 -16 7 -53 20 -82 28 -28 9 -60 20 -71 26 -10 5 -52 20 -93 31 -41
12 -112 32 -159 46 -384 114 -824 159 -1110 114z"/>
<path d="M6550 8090 c14 -11 31 -20 39 -20 8 0 3 9 -12 20 -14 11 -31 20 -39
20 -7 0 -2 -9 12 -20z"/>
<path d="M6615 8050 c3 -5 13 -10 21 -10 8 0 12 5 9 10 -3 6 -13 10 -21 10 -8
0 -12 -4 -9 -10z"/>
<path d="M6690 8006 c0 -2 7 -7 16 -10 8 -3 12 -2 9 4 -6 10 -25 14 -25 6z"/>
</g>
</svg>
