<?xml version="1.0" standalone="no"?>
<!DOCTYPE svg PUBLIC "-//W3C//DTD SVG 20010904//EN"
 "http://www.w3.org/TR/2001/REC-SVG-20010904/DTD/svg10.dtd">
<svg version="1.0" xmlns="http://www.w3.org/2000/svg"
 width="500.000000pt" height="500.000000pt" viewBox="0 0 500.000000 500.000000"
 preserveAspectRatio="xMidYMid meet">

<g transform="translate(0.000000,500.000000) scale(0.100000,-0.100000)"
fill="#000000" stroke="none">
<path d="M1888 3702 c-235 -70 -429 -130 -433 -133 -3 -3 52 -23 122 -43 71
-21 264 -78 429 -127 166 -49 310 -89 320 -89 32 0 885 253 877 260 -5 4 -33
14 -63 22 -30 9 -224 66 -431 127 -207 61 -381 111 -385 110 -5 0 -201 -57
-436 -127z"/>
<path d="M1440 3421 c0 -91 0 -91 25 -91 26 0 26 0 23 76 -3 67 -6 79 -25 92
l-23 14 0 -91z"/>
<path d="M1782 3388 c-15 -15 -17 -390 -2 -419 10 -18 27 -19 543 -19 401 0
536 3 545 12 19 19 17 427 -2 434 -8 3 -112 -24 -233 -60 -120 -35 -239 -70
-264 -76 -44 -11 -58 -8 -304 64 -141 42 -260 76 -264 76 -4 0 -12 -5 -19 -12z"/>
<path d="M1423 3265 c-40 -17 -67 -58 -66 -100 1 -44 87 -225 106 -225 9 0 34
39 61 93 66 133 61 199 -20 233 -40 17 -41 17 -81 -1z"/>
<path d="M1303 2721 c-97 -33 -161 -89 -211 -185 -24 -45 -27 -62 -27 -151 0
-90 3 -106 29 -159 37 -76 96 -135 172 -172 l59 -29 718 -3 c426 -1 717 1 717
6 0 5 -16 36 -35 68 -42 69 -54 108 -62 189 -10 116 37 237 129 328 47 47 57
73 42 111 -6 14 -80 16 -743 16 -682 -1 -740 -2 -788 -19z m131 -128 c9 -22
-18 -43 -54 -43 -35 0 -88 -36 -118 -80 -32 -46 -28 -139 7 -188 25 -36 87
-72 124 -72 14 0 30 -7 37 -16 11 -12 11 -18 -2 -31 -39 -38 -168 24 -214 103
-15 25 -28 66 -31 97 -13 123 92 243 213 246 21 1 34 -5 38 -16z m631 -413 l0
-25 -228 -3 c-196 -2 -228 0 -233 13 -4 8 -4 22 0 30 5 13 37 15 233 13 l228
-3 0 -25z"/>
<path d="M2975 2673 c-103 -37 -180 -110 -228 -213 -16 -36 -21 -66 -21 -145
-1 -88 2 -107 26 -157 51 -109 141 -184 260 -214 53 -14 75 -15 136 -5 136 21
237 96 295 219 28 59 32 77 31 152 0 109 -26 179 -95 255 -74 81 -156 118
-268 122 -64 3 -99 -1 -136 -14z m145 -100 c0 -35 9 -48 37 -57 37 -12 74 -64
71 -100 -4 -42 -34 -48 -49 -9 -18 48 -38 63 -85 63 -74 0 -108 -58 -62 -107
16 -18 32 -23 68 -23 84 0 145 -60 136 -134 -4 -37 -47 -96 -70 -96 -22 0 -37
-17 -42 -46 -3 -16 -9 -33 -14 -38 -15 -15 -40 14 -40 45 0 20 -6 30 -22 34
-34 11 -66 44 -79 82 -9 29 -9 38 4 51 13 13 19 13 31 2 9 -7 16 -20 16 -30 0
-20 26 -45 58 -55 35 -10 91 13 98 41 16 61 -22 94 -108 94 -32 0 -47 7 -74
34 -29 29 -34 41 -34 79 0 53 27 93 77 113 26 11 33 20 33 42 0 33 7 42 32 42
13 0 18 -8 18 -27z"/>
<path d="M1785 1960 l-470 -5 -63 -34 c-72 -39 -120 -88 -159 -163 -25 -48
-28 -63 -28 -153 0 -89 3 -106 28 -156 34 -70 109 -142 185 -177 l57 -27 943
-3 c518 -1 942 1 942 6 0 4 -170 109 -377 232 -208 123 -395 241 -417 262 -38
37 -38 39 -34 98 3 48 10 66 31 88 15 16 24 31 20 35 -3 4 -47 6 -97 5 -50 -1
-302 -5 -561 -8z m-351 -146 c9 -24 0 -32 -44 -39 -87 -15 -150 -86 -150 -169
0 -90 57 -159 142 -172 71 -12 75 -59 4 -57 -65 2 -147 58 -181 124 -23 43
-29 113 -15 163 16 57 72 123 124 147 52 23 112 25 120 3z m1277 -400 c11 -14
10 -18 -6 -30 -15 -12 -111 -14 -546 -14 -290 0 -534 3 -543 6 -16 6 -22 35
-9 47 3 4 250 7 548 7 486 0 544 -2 556 -16z"/>
<path d="M2469 1891 c-31 -32 -36 -55 -18 -95 8 -18 126 -93 413 -264 220
-132 412 -245 426 -252 61 -32 127 -40 340 -40 l215 0 50 -30 c88 -52 90 -51
189 121 47 84 86 162 86 174 0 17 -13 31 -47 51 -27 15 -95 73 -153 129 -113
109 -135 125 -192 144 -72 24 -145 17 -273 -27 -113 -38 -273 -72 -337 -72
-18 0 -39 -10 -55 -26 -21 -21 -24 -32 -19 -62 11 -73 16 -74 307 -66 239 6
259 6 265 -10 4 -10 2 -22 -3 -27 -5 -5 -121 -14 -257 -19 -214 -8 -253 -7
-286 6 -43 17 -66 47 -83 106 -12 40 -14 41 -252 164 -132 68 -250 124 -263
124 -13 0 -37 -13 -53 -29z"/>
</g>
</svg>
