<?xml version="1.0" standalone="no"?>
<!DOCTYPE svg PUBLIC "-//W3C//DTD SVG 20010904//EN"
 "http://www.w3.org/TR/2001/REC-SVG-20010904/DTD/svg10.dtd">
<svg version="1.0" xmlns="http://www.w3.org/2000/svg"
 width="225.000000pt" height="225.000000pt" viewBox="0 0 225.000000 225.000000"
 preserveAspectRatio="xMidYMid meet">

<g transform="translate(0.000000,225.000000) scale(0.100000,-0.100000)"
fill="#000000" stroke="none">
<path d="M800 1659 c-179 -64 -334 -120 -345 -124 -15 -4 3 -15 69 -39 l90
-33 150 52 c83 29 196 69 251 89 69 25 102 33 110 25 17 -17 -10 -30 -233
-109 -116 -41 -208 -78 -204 -81 4 -4 103 -41 221 -84 188 -68 217 -76 245
-67 17 5 76 26 131 47 55 20 186 67 290 105 247 88 243 87 225 94 -8 3 -148
53 -310 111 -162 58 -311 112 -330 119 -34 13 -46 9 -360 -105z"/>
<path d="M610 1365 c0 -37 4 -65 10 -65 6 0 10 28 10 65 0 37 -4 65 -10 65 -6
0 -10 -28 -10 -65z"/>
<path d="M690 1267 l0 -112 84 -22 c110 -28 223 -74 291 -118 31 -19 57 -35
60 -35 3 0 29 16 60 35 68 44 181 90 291 118 l84 22 0 112 c0 62 -2 113 -6
113 -3 0 -85 -29 -182 -64 -97 -35 -193 -69 -212 -76 -34 -12 -47 -8 -248 64
-117 42 -214 76 -217 76 -3 0 -5 -51 -5 -113z"/>
<path d="M594 1266 c-10 -26 4 -48 28 -44 17 2 23 10 23 28 0 18 -6 26 -23 28
-13 2 -25 -3 -28 -12z"/>
<path d="M597 1192 c-3 -4 -9 -33 -12 -63 -3 -30 -8 -73 -11 -96 l-5 -43 51 0
51 0 -7 63 c-13 126 -18 142 -41 145 -12 2 -24 -1 -26 -6z"/>
<path d="M1610 1128 c0 -8 -38 -21 -98 -34 -136 -30 -275 -92 -377 -168 -8 -6
-25 1 -51 22 -50 40 -194 106 -287 132 -39 11 -75 20 -79 20 -13 0 -9 -97 5
-107 6 -6 115 -45 242 -87 l229 -76 262 120 c143 66 263 120 265 120 2 0 4
-17 4 -37 1 -21 3 -46 5 -57 4 -15 -17 -28 -132 -79 -76 -33 -134 -65 -131
-70 3 -6 1 -7 -6 -3 -6 4 -66 -18 -133 -49 -67 -31 -128 -54 -136 -53 -9 2
-21 19 -27 38 l-12 35 -224 73 c-182 60 -235 74 -282 73 -94 -2 -127 7 -127
35 0 24 -8 30 -67 48 -21 7 -23 4 -23 -26 0 -19 6 -42 13 -51 6 -9 107 -48
222 -87 116 -39 281 -96 369 -126 l158 -54 114 51 c65 30 111 56 107 62 -4 6
-1 7 6 3 13 -8 71 11 71 24 0 3 6 7 13 7 6 0 58 21 115 47 56 25 103 46 105
46 1 0 2 -17 2 -37 1 -21 3 -47 5 -57 5 -18 -33 -40 -155 -89 -6 -3 -6 -9 1
-16 8 -8 27 -4 77 19 37 16 68 30 70 30 3 0 2 -11 0 -25 -3 -13 0 -38 6 -55
10 -31 10 -32 -37 -52 -54 -24 -57 -26 -49 -34 3 -4 31 4 62 17 48 20 54 25
48 43 -5 12 -7 40 -6 64 1 23 2 56 2 72 0 17 0 51 0 78 0 45 0 59 -2 147 -1
22 2 48 7 57 6 14 -3 20 -59 37 -78 24 -85 25 -85 9z"/>
<path d="M483 1098 c-32 -15 -29 -23 12 -35 34 -11 35 -11 35 18 0 31 -10 35
-47 17z"/>
<path d="M1615 930 c-44 -21 -75 -39 -70 -39 6 0 46 18 90 39 44 21 76 38 70
38 -5 0 -46 -17 -90 -38z"/>
<path d="M1490 875 c-14 -8 -20 -14 -15 -14 6 0 21 6 35 14 14 8 21 14 15 14
-5 0 -21 -6 -35 -14z"/>
<path d="M430 847 c0 -18 6 -40 13 -49 9 -13 475 -179 717 -257 33 -10 44 -7
153 43 92 42 114 56 103 65 -10 9 -36 1 -114 -35 -56 -26 -108 -44 -116 -41
-8 3 -19 21 -24 38 l-8 33 -359 118 c-198 65 -361 118 -362 118 -2 0 -3 -15
-3 -33z"/>
<path d="M1328 801 c-70 -31 -131 -61 -135 -65 -9 -9 13 0 157 64 80 36 127
61 110 60 -3 -1 -62 -27 -132 -59z"/>
<path d="M1625 785 c-38 -19 -65 -34 -60 -34 6 0 42 15 80 34 39 18 66 33 60
33 -5 0 -41 -15 -80 -33z"/>
<path d="M1428 747 c-38 -17 -68 -33 -68 -36 0 -3 20 -18 43 -32 35 -21 50
-40 84 -111 23 -47 46 -89 51 -92 5 -3 17 12 26 34 15 39 17 40 63 40 l47 0
-34 35 c-19 19 -50 65 -70 102 -49 93 -59 97 -142 60z"/>
<path d="M430 697 c0 -63 -18 -54 470 -218 145 -49 273 -89 284 -89 30 0 295
123 296 138 0 6 -2 12 -4 12 -3 0 -65 -27 -138 -60 -73 -34 -139 -59 -147 -58
-8 2 -19 18 -26 37 l-11 33 -359 119 c-198 65 -361 119 -362 119 -2 0 -3 -15
-3 -33z"/>
<path d="M1340 655 c-14 -8 -20 -14 -15 -14 6 0 21 6 35 14 14 8 21 14 15 14
-5 0 -21 -6 -35 -14z"/>
<path d="M1650 645 c-14 -8 -20 -14 -15 -14 6 0 21 6 35 14 14 8 21 14 15 14
-5 0 -21 -6 -35 -14z"/>
<path d="M1247 615 c-26 -12 -51 -26 -55 -30 -9 -9 53 17 94 38 44 24 16 19
-39 -8z"/>
<path d="M1375 520 c-44 -21 -77 -39 -74 -39 4 -1 44 17 90 38 46 22 80 40 74
40 -5 0 -46 -18 -90 -39z"/>
<path d="M1240 460 c-19 -11 -30 -19 -25 -19 6 0 26 8 45 19 19 11 31 19 25
19 -5 0 -26 -8 -45 -19z"/>
</g>
</svg>
