<?xml version="1.0" standalone="no"?>
<!DOCTYPE svg PUBLIC "-//W3C//DTD SVG 20010904//EN"
 "http://www.w3.org/TR/2001/REC-SVG-20010904/DTD/svg10.dtd">
<svg version="1.0" xmlns="http://www.w3.org/2000/svg"
 width="268.000000pt" height="188.000000pt" viewBox="0 0 268.000000 188.000000"
 preserveAspectRatio="xMidYMid meet">

<g transform="translate(0.000000,188.000000) scale(0.100000,-0.100000)"
fill="#000000" stroke="none">
<path d="M1267 1686 c-43 -16 -120 -76 -144 -113 -17 -25 -22 -120 -8 -162 5
-15 2 -21 -9 -21 -30 0 -19 -55 16 -85 17 -14 41 -45 52 -68 31 -62 95 -123
140 -131 61 -12 122 25 174 104 23 36 56 79 72 95 31 31 42 85 18 85 -10 0
-12 22 -9 86 l3 86 -50 48 c-28 27 -65 56 -82 65 -45 23 -127 28 -173 11z"/>
<path d="M1084 1061 c-139 -42 -176 -69 -189 -142 l-7 -36 84 -13 c238 -35
332 -51 350 -61 13 -7 23 -7 31 0 10 7 393 71 430 71 11 0 1 60 -15 95 -14 32
-189 105 -251 105 -8 0 -46 -31 -85 -70 -44 -44 -78 -70 -92 -70 -14 0 -48 26
-92 70 -39 39 -77 70 -87 69 -9 0 -43 -9 -77 -18z"/>
<path d="M799 829 c-2 -20 -1 -37 6 -111 6 -66 7 -67 50 -93 90 -52 136 -114
129 -173 -7 -60 -33 -100 -80 -122 -54 -27 -56 -45 -6 -53 283 -46 374 -64
410 -82 30 -15 34 -15 65 1 33 17 42 19 247 55 192 33 193 33 197 46 3 7 -12
19 -34 28 -67 27 -108 114 -83 176 13 30 71 99 84 99 3 0 24 11 45 24 37 24
38 26 48 108 14 109 10 112 -100 86 -45 -11 -91 -21 -102 -24 -202 -40 -270
-57 -297 -76 -33 -23 -53 -23 -76 0 -10 10 -47 24 -83 32 -35 7 -131 28 -214
47 -82 18 -162 36 -177 40 -20 4 -28 1 -29 -8z"/>
<path d="M750 553 c-39 -50 -13 -136 51 -169 56 -29 119 8 119 69 -1 39 -12
54 -69 95 -54 39 -73 40 -101 5z"/>
<path d="M1845 561 c-78 -48 -103 -98 -75 -151 14 -26 71 -43 102 -31 61 23
94 110 63 168 -21 38 -45 42 -90 14z"/>
</g>
</svg>
